<?xml version="1.0" encoding="UTF-8" standalone="no"?>
<!DOCTYPE svg PUBLIC "-//W3C//DTD SVG 20010904//EN"
              "http://www.w3.org/TR/2001/REC-SVG-20010904/DTD/svg10.dtd">

<svg xmlns="http://www.w3.org/2000/svg"
     width="19.9306in" height="15in"
     viewBox="0 0 1435 1080">
  <path id="Selection"
        fill="none" stroke="black" stroke-width="1"
        d="M 1381.00,167.00
           C 1381.00,167.00 1382.00,167.00 1382.00,167.00
             1382.00,167.00 1381.00,168.00 1381.00,168.00
             1381.00,168.00 1381.00,167.00 1381.00,167.00 Z
           M 747.00,859.00
           C 746.40,855.63 745.09,846.09 745.32,843.00
             746.46,828.12 753.68,812.02 760.69,799.00
             763.93,792.99 766.94,785.80 772.02,781.18
             780.29,773.65 786.20,772.79 796.00,769.66
             801.37,767.94 808.47,764.79 814.00,765.18
             827.32,766.13 848.38,773.91 857.96,783.09
             866.36,791.14 875.06,806.46 880.24,817.00
             880.24,817.00 889.00,836.00 889.00,836.00
             889.00,836.00 878.00,824.00 878.00,824.00
             878.33,831.12 880.07,834.71 878.00,842.00
             884.84,842.00 887.36,841.57 894.00,844.00
             890.64,852.41 887.23,859.40 879.91,865.24
             879.91,865.24 867.41,873.27 867.41,873.27
             863.82,877.11 857.85,893.48 857.00,899.00
             857.00,899.00 855.00,899.00 855.00,899.00
             855.00,899.00 854.00,888.00 854.00,888.00
             854.00,888.00 851.00,897.00 851.00,897.00
             851.00,897.00 850.00,897.00 850.00,897.00
             850.00,897.00 848.00,895.00 848.00,895.00
             845.41,899.05 843.94,900.73 840.56,904.13
             826.15,918.61 812.06,909.42 799.00,899.00
             799.00,903.55 799.55,906.05 797.00,910.00
             793.51,898.12 794.84,899.29 786.00,889.00
             786.50,895.11 788.86,903.75 785.00,909.00
             784.97,900.28 782.25,889.46 775.90,883.10
             772.47,879.67 767.93,877.73 764.00,874.96
             761.18,872.96 751.32,865.33 753.17,861.43
             754.02,859.63 756.31,859.37 758.00,859.00
             757.23,849.53 754.35,840.72 756.00,831.00
             748.99,838.37 751.00,852.82 747.00,859.00 Z" />
</svg>
