<?xml version="1.0" encoding="UTF-8" standalone="no"?>
<!DOCTYPE svg PUBLIC "-//W3C//DTD SVG 20010904//EN"
              "http://www.w3.org/TR/2001/REC-SVG-20010904/DTD/svg10.dtd">

<svg xmlns="http://www.w3.org/2000/svg"
     width="19.9444in" height="15in"
     viewBox="0 0 1436 1080">
  <path id="Selection"
        fill="none" stroke="black" stroke-width="1"
        d="M 441.00,112.00
           C 447.12,109.97 445.26,106.79 450.47,101.30
             450.47,101.30 471.00,83.82 471.00,83.82
             480.36,76.49 482.21,79.39 486.28,78.77
             486.28,78.77 497.00,75.53 497.00,75.53
             497.00,75.53 510.00,67.88 510.00,67.88
             511.59,67.21 514.76,65.93 516.38,67.11
             519.71,69.61 512.17,76.54 516.38,80.02
             517.50,80.92 521.39,81.84 523.00,82.47
             529.19,84.88 535.04,88.36 537.00,95.00
             537.00,95.00 529.00,97.00 529.00,97.00
             533.36,99.87 534.02,102.05 538.02,104.17
             545.34,108.04 552.63,106.96 560.00,117.00
             560.00,117.00 547.00,118.00 547.00,118.00
             554.43,126.75 559.56,123.31 568.00,139.00
             568.00,139.00 564.00,140.00 564.00,140.00
             564.00,140.00 562.96,149.00 562.96,149.00
             562.96,149.00 568.00,164.00 568.00,164.00
             566.02,163.55 562.93,162.44 561.02,162.77
             555.73,163.66 552.26,175.37 550.47,180.00
             547.93,186.54 545.12,188.28 544.21,191.00
             543.31,193.70 544.72,195.41 544.21,198.00
             544.21,198.00 541.57,204.00 541.57,204.00
             541.57,204.00 540.00,211.00 540.00,211.00
             540.00,211.00 530.00,207.00 530.00,207.00
             526.16,220.38 509.66,233.33 496.00,235.37
             496.00,235.37 489.00,235.37 489.00,235.37
             483.12,235.82 475.42,235.40 470.00,232.69
             464.60,229.98 462.81,225.44 459.40,221.09
             454.18,214.44 444.32,203.53 441.48,196.00
             441.48,196.00 439.20,189.00 439.20,189.00
             439.20,189.00 433.05,180.00 433.05,180.00
             429.46,173.16 429.34,162.61 438.00,160.00
             434.04,153.04 427.55,137.12 430.88,129.26
             432.28,125.94 438.00,122.49 441.00,112.00 Z" />
</svg>
