<?xml version="1.0" encoding="UTF-8" standalone="no"?>
<!DOCTYPE svg PUBLIC "-//W3C//DTD SVG 20010904//EN"
              "http://www.w3.org/TR/2001/REC-SVG-20010904/DTD/svg10.dtd">

<svg xmlns="http://www.w3.org/2000/svg"
     width="20in" height="15in"
     viewBox="0 0 1440 1080">
  <path id="Selection"
        fill="none" stroke="black" stroke-width="1"
        d="M 80.00,513.00
           C 79.28,504.71 83.91,501.20 90.00,496.50
             97.95,490.36 107.19,484.91 113.49,477.00
             113.49,477.00 129.30,453.00 129.30,453.00
             135.81,443.94 143.89,436.06 153.00,429.63
             163.32,422.36 177.26,417.05 190.00,418.09
             195.63,418.55 197.16,420.58 201.00,421.09
             201.00,421.09 207.00,421.09 207.00,421.09
             213.00,421.40 226.37,423.69 232.00,425.70
             243.67,429.87 265.20,443.84 276.00,450.92
             290.03,460.13 301.25,466.17 317.00,471.95
             328.13,476.03 331.67,474.95 331.00,483.85
             318.03,485.72 313.14,485.79 300.00,483.85
             300.00,483.85 290.00,481.08 290.00,481.08
             283.80,480.35 281.05,482.66 275.00,481.08
             275.00,481.08 249.00,470.00 249.00,470.00
             249.00,470.00 251.91,487.00 251.91,487.00
             251.91,487.00 245.47,513.00 245.47,513.00
             245.47,513.00 246.00,519.00 246.00,519.00
             246.00,519.00 238.00,518.00 238.00,518.00
             238.00,518.00 237.00,522.00 237.00,522.00
             237.00,522.00 233.00,517.00 233.00,517.00
             231.48,523.75 230.80,522.91 232.00,530.00
             232.00,530.00 226.00,528.00 226.00,528.00
             221.09,536.05 205.45,548.58 196.00,549.45
             186.30,550.35 167.02,538.49 163.00,530.00
             163.00,530.00 158.00,533.00 158.00,533.00
             156.53,524.74 157.72,522.61 148.00,524.00
             151.46,513.27 146.64,516.98 140.79,509.82
             137.95,506.34 136.41,501.80 134.00,498.00
             134.00,498.00 135.00,510.00 135.00,510.00
             133.70,509.18 133.22,509.20 132.31,507.71
             129.39,502.89 131.24,487.32 133.00,482.00
             127.24,485.99 115.93,494.51 110.00,497.44
             104.98,499.93 104.69,497.52 98.99,500.70
             91.20,505.04 89.97,510.09 80.00,513.00 Z" />
</svg>
