<?xml version="1.0" encoding="UTF-8" standalone="no"?>
<!DOCTYPE svg PUBLIC "-//W3C//DTD SVG 20010904//EN"
              "http://www.w3.org/TR/2001/REC-SVG-20010904/DTD/svg10.dtd">

<svg xmlns="http://www.w3.org/2000/svg"
     width="19.9444in" height="15in"
     viewBox="0 0 1436 1080">
  <path id="Selection"
        fill="none" stroke="black" stroke-width="1"
        d="M 713.00,387.00
           C 714.64,381.35 719.15,376.37 724.00,373.10
             726.50,371.42 731.31,369.64 732.31,366.79
             733.13,364.49 731.26,357.02 731.09,354.00
             730.89,350.43 732.28,340.86 732.92,337.00
             736.17,317.31 739.95,306.51 756.00,293.33
             764.18,286.61 777.69,285.02 788.00,285.00
             793.91,284.99 799.26,284.72 805.00,286.60
             810.56,288.42 813.66,291.03 818.00,294.73
             833.04,307.57 838.01,321.86 839.96,341.00
             839.96,341.00 839.96,350.00 839.96,350.00
             839.96,350.00 841.00,360.00 841.00,360.00
             846.89,360.27 854.04,361.77 858.98,365.11
             860.90,366.40 864.32,369.02 863.55,371.73
             862.65,374.88 856.18,375.32 853.60,378.41
             850.63,381.96 852.79,390.50 853.00,395.00
             853.00,395.00 845.00,392.00 845.00,392.00
             847.43,407.74 860.18,424.06 877.00,425.00
             869.59,432.31 858.06,422.95 850.80,419.00
             851.00,421.50 851.13,425.68 850.80,428.00
             848.86,435.81 840.95,446.01 834.00,450.00
             834.00,450.00 837.00,440.00 837.00,440.00
             837.00,440.00 831.00,439.00 831.00,439.00
             832.59,437.69 833.95,436.80 834.98,434.91
             838.41,428.58 833.71,415.44 830.00,410.00
             830.00,410.00 819.49,431.00 819.49,431.00
             819.49,431.00 814.00,440.00 814.00,440.00
             814.19,431.68 816.37,428.60 819.00,421.00
             819.00,421.00 810.00,435.00 810.00,435.00
             807.26,425.33 811.91,420.37 815.56,412.00
             818.33,405.66 820.08,397.85 821.00,391.00
             814.07,397.75 801.97,404.78 792.00,405.25
             784.36,405.61 772.23,401.51 765.00,399.00
             766.96,411.47 774.27,418.02 782.00,427.00
             775.01,428.24 771.61,423.56 767.00,419.00
             769.07,423.81 771.00,428.23 775.04,431.78
             775.04,431.78 783.00,437.00 783.00,437.00
             777.69,438.49 775.82,438.05 771.00,435.41
             759.18,428.92 759.89,423.65 755.37,418.21
             752.91,415.25 751.20,415.25 746.96,410.00
             744.85,420.70 741.95,431.52 746.96,442.00
             748.67,445.70 751.65,448.68 754.00,452.00
             751.11,452.23 747.81,452.95 745.00,452.66
             733.25,451.44 731.03,443.14 731.00,433.00
             724.09,439.38 722.77,445.85 712.00,447.00
             714.86,441.43 719.03,440.03 723.74,431.00
             731.74,415.64 728.73,414.46 732.00,401.00
             732.00,401.00 723.00,407.00 723.00,407.00
             721.38,394.64 723.31,396.98 725.00,386.00
             725.00,386.00 713.00,387.00 713.00,387.00 Z" />
</svg>
