<?xml version="1.0" encoding="UTF-8" standalone="no"?>
<!DOCTYPE svg PUBLIC "-//W3C//DTD SVG 20010904//EN" "http://www.w3.org/TR/2001/REC-SVG-20010904/DTD/svg10.dtd">

<svg xmlns="http://www.w3.org/2000/svg"
   width="19.9444in" height="15in"
   viewBox="0 0 1436 1080">
   <path id="Noe"
      fill="none" stroke="black" stroke-width="1"
      d="M 438.00,608.00
           C 440.26,609.46 442.48,611.14 445.00,612.13
             456.15,616.49 472.97,611.31 485.00,610.17
             491.74,609.53 501.64,611.17 508.00,613.44
             519.64,617.59 529.97,624.88 537.21,635.00
             548.26,650.44 552.68,677.09 545.74,694.99
             543.41,701.00 536.69,705.54 532.63,710.32
             532.63,710.32 528.21,717.00 528.21,717.00
             524.80,721.75 517.76,728.59 513.00,732.00
             513.00,732.00 512.00,728.00 512.00,728.00
             508.70,734.85 506.25,736.10 506.00,744.00
             501.69,741.60 501.67,739.64 501.00,735.00
             496.29,738.33 489.89,744.81 485.00,746.91
             476.10,750.74 460.24,745.65 456.00,737.00
             454.06,740.86 453.92,741.91 450.00,744.00
             450.00,734.01 448.90,728.57 443.04,720.09
             440.34,716.18 438.22,715.61 435.38,710.00
             435.38,710.00 428.91,692.04 428.91,692.04
             425.71,686.75 420.14,686.29 417.65,678.00
             415.93,672.27 418.71,663.43 420.81,658.00
             427.70,640.20 434.76,632.37 449.00,620.00
             441.98,618.89 436.57,616.07 438.00,608.00 Z" />
</svg>