<?xml version="1.0" encoding="UTF-8" standalone="no"?>
<!DOCTYPE svg PUBLIC "-//W3C//DTD SVG 20010904//EN"
              "http://www.w3.org/TR/2001/REC-SVG-20010904/DTD/svg10.dtd">

<svg xmlns="http://www.w3.org/2000/svg"
     width="379.63mm" height="285.714mm"
     viewBox="0 0 1435 1080"
     id="chara">
  <path id="Rua_svg"
        fill="white" fill-opacity="0.5"
        d="M 177.00,974.00
           C 176.70,961.94 172.16,964.71 174.17,948.00
             175.38,937.85 180.51,935.33 180.00,931.00
             179.44,926.21 168.12,916.47 164.63,912.00
             159.59,905.54 160.96,902.50 169.00,901.10
             169.00,901.10 175.00,901.10 175.00,901.10
             175.00,901.10 180.00,901.10 180.00,901.10
             180.00,901.10 209.00,904.59 209.00,904.59
             219.28,903.01 223.09,896.03 241.00,896.00
             244.86,895.99 249.23,895.81 253.00,896.68
             255.30,896.86 258.44,898.07 260.61,896.68
             262.63,895.80 265.49,890.15 266.81,888.00
             271.09,881.02 275.91,872.76 284.00,870.00
             289.09,880.49 289.48,900.21 289.70,912.00
             289.70,912.00 289.70,917.00 289.70,917.00
             289.24,923.21 293.82,927.89 296.94,933.00
             301.24,940.05 307.74,952.95 309.00,961.00
             304.39,958.56 303.97,956.14 301.00,952.00
             301.00,952.00 301.68,967.00 301.68,967.00
             301.68,967.00 307.00,983.00 307.00,983.00
             307.00,983.00 299.00,976.00 299.00,976.00
             297.62,981.81 296.90,981.53 295.40,986.00
             295.40,986.00 292.54,996.00 292.54,996.00
             289.20,1004.54 280.03,1016.44 272.00,1020.92
             265.18,1024.72 248.07,1022.57 241.00,1019.74
             236.27,1017.85 232.02,1015.08 228.00,1012.00
             228.00,1012.00 227.00,1016.00 227.00,1016.00
             227.00,1016.00 223.00,1006.00 223.00,1006.00
             223.00,1006.00 221.00,1017.00 221.00,1017.00
             221.00,1017.00 214.00,1011.00 214.00,1011.00
             214.00,1011.00 216.00,1017.00 216.00,1017.00
             205.99,1013.07 207.68,1008.01 202.37,1001.09
             198.26,995.75 193.05,994.18 190.00,985.00
             184.12,988.05 181.45,977.29 181.00,973.00
             181.00,973.00 177.00,974.00 177.00,974.00 Z" />
</svg>
